# xmcd
#
# Track frame offsets:
#	150
#	19881
#	42367
#	71497
#	84266
#	108457
#	130940
#	148730
#	172091
#	188641
#	207994
#	222918
#
# Disc length: 3315 seconds
# Revision: 2
# Processed by: cddbd v1.5.2PL0 Copyright (c) Steve Scherf et al.
# Submitted via: dBpowerAMP V12.0
#
DISCID=b00cf10c
DTITLE=Ken Whiteley - Freedom Blues
DYEAR=2015
DGENRE=Blues
TTITLE0=Bring It All Right Down
TTITLE1=Freedom Blues
TTITLE2=Freedom Is a Constant Struggle
TTITLE3=Throw Me Anywhere
TTITLE4=Omar Khadr's Blues
TTITLE5=Give Your Hands To Struggle
TTITLE6=Sewing Machines
TTITLE7=Right Here In My Town
TTITLE8=Halls Of Folsom
TTITLE9=The Other Shore
TTITLE10=Midnight Special
TTITLE11=I Shall Be Released
EXTD=
EXTT0=
EXTT1=
EXTT2=
EXTT3=
EXTT4=
EXTT5=
EXTT6=
EXTT7=
EXTT8=
EXTT9=
EXTT10=
EXTT11=
PLAYORDER=
